<svg xmlns="http://www.w3.org/2000/svg" xmlns:xlink="http://www.w3.org/1999/xlink" viewBox="0 0 30.85 22.65"><defs><style>.cls-1{fill:url(#linear-gradient);}.cls-2{fill:url(#linear-gradient-2);}</style><linearGradient id="linear-gradient" x1="7.2" y1="11.52" x2="30.85" y2="11.52" gradientUnits="userSpaceOnUse"><stop offset="0" stop-color="#c029c1"/><stop offset="1" stop-color="#a917ff"/></linearGradient><linearGradient id="linear-gradient-2" x1="0" y1="10.56" x2="23.65" y2="10.56" xlink:href="#linear-gradient"/></defs><g id="Layer_2" data-name="Layer 2"><g id="Layer_1-2" data-name="Layer 1"><path class="cls-1" d="M28,17.31l-4.53,4.54A2.75,2.75,0,0,1,19.53,18l4.54-4.53a4.43,4.43,0,0,0-6.26-6.26L11.89,13.1A2.75,2.75,0,1,1,8,9.21l5.93-5.92a9.91,9.91,0,0,1,14,14Z"/><path class="cls-2" d="M22.85,12.3l-5.92,5.92a9.92,9.92,0,0,1-14-14L6.29.8a2.75,2.75,0,1,1,3.88,3.89L6.79,8.08A4.42,4.42,0,0,0,13,14.33L19,8.41a2.75,2.75,0,0,1,3.89,3.89Z"/></g></g></svg>