<svg xmlns="http://www.w3.org/2000/svg" xmlns:xlink="http://www.w3.org/1999/xlink" viewBox="0 0 95.85 95.85"><defs><style>.cls-1{fill:url(#linear-gradient);}.cls-2{fill:#fff;}</style><linearGradient id="linear-gradient" y1="47.92" x2="95.85" y2="47.92" gradientUnits="userSpaceOnUse"><stop offset="0" stop-color="#c029c1"/><stop offset="1" stop-color="#a917ff"/></linearGradient></defs><g id="Layer_2" data-name="Layer 2"><g id="Layer_1-2" data-name="Layer 1"><circle class="cls-1" cx="47.92" cy="47.92" r="47.92"/><path class="cls-2" d="M77.11,61.88,66.55,72.44a6.41,6.41,0,0,1-9.06-9.06L68.06,52.82A10.3,10.3,0,1,0,53.49,38.25l-13.8,13.8a6.4,6.4,0,0,1-9.06-9l13.8-13.81A23.11,23.11,0,1,1,77.11,61.88Z"/><path class="cls-2" d="M65.22,50.18,51.42,64A23.11,23.11,0,0,1,18.74,31.3l7.89-7.89a6.4,6.4,0,1,1,9.05,9.06l-7.89,7.89A10.3,10.3,0,0,0,42.36,54.93l13.8-13.8a6.4,6.4,0,1,1,9.06,9Z"/></g></g></svg>